# xmcd
#
# Track frame offsets:
#	150
#	4393
#	22337
#	41585
#	58214
#	69577
#	95435
#	121129
#	130811
#	133095
#	157030
#	172375
#	198990
#	227707
#	251458
#	272910
#	296052
#	312819
#
# Disc length: 4189 seconds
#
# Revision: 0
# Processed by: cddbd v1.5.2PL0 Copyright (c) Steve Scherf et al.
# Submitted via: EasyCDDAExtractor 16.0.6.1
#
DISCID=15105b12
DTITLE=Kirsten Boie Karl Menrad - Der kleine Ritter Trenk und der Grosse Gefae
DTITLE=hrliche
DYEAR=1900
DGENRE=
TTITLE0=1. Kapitel, in dem der Herr Fuerst...
TTITLE1=1. Kapitel, in dem der Herr Fuerst...
TTITLE2=1. Kapitel, in dem der Herr Fuerst...
TTITLE3=2. Kapitel, in dem Trenk versucht...
TTITLE4=2. Kapitel, in dem Trenk versucht...
TTITLE5=3. Kapitel, in dem Trenk von Siegfried hoert...
TTITLE6=4. Kapitel, in dem Wertold...
TTITLE7=4. Kapitel, in dem Wertold...
TTITLE8=4. Kapitel, in dem Wertold...
TTITLE9=5. Kapitel, in dem Trenk...
TTITLE10=5. Kapitel, in dem Trenk...
TTITLE11=6. Kapitel, in dem erzaehlt wird, wie Wertold...
TTITLE12=6. Kapitel, in dem erzaehlt wird, wie Wertold...
TTITLE13=8. Kapitel, in dem Trenk auf der Flucht ist
TTITLE14=8. Kapitel, in dem Trenk auf der Flucht ist
TTITLE15=9. Kapitel, in dem erzaehlt wird...
TTITLE16=9. Kapitel, in dem erzaehlt wird...
TTITLE17=9. Kapitel, in dem erzaehlt wird...
EXTD=
EXTT0=
EXTT1=
EXTT2=
EXTT3=
EXTT4=
EXTT5=
EXTT6=
EXTT7=
EXTT8=
EXTT9=
EXTT10=
EXTT11=
EXTT12=
EXTT13=
EXTT14=
EXTT15=
EXTT16=
EXTT17=
PLAYORDER=
